<svg xmlns="http://www.w3.org/2000/svg" viewBox="0 0 64 64" role="img" aria-label="Dentist tooth icon">
  <path d="M22.5 10.5c-7.2 0-12 5.7-12 13.1 0 6.2 3.4 10.2 5.8 14.7 2.3 4.3 2.7 14.2 8.4 14.2 4.1 0 3.8-9.3 7.3-9.3s3.2 9.3 7.3 9.3c5.7 0 6.1-9.9 8.4-14.2 2.4-4.5 5.8-8.5 5.8-14.7 0-7.4-4.8-13.1-12-13.1-4.2 0-6.7 2.1-9.5 2.1s-5.3-2.1-9.5-2.1z" fill="#fffdf6" stroke="#6b3a2f" stroke-width="5" stroke-linejoin="round"/>
  <path d="M32 23v15M24.5 30.5h15" fill="none" stroke="#6b3a2f" stroke-width="5" stroke-linecap="round"/>
  <path d="M14 14l2-4 2 4 4 2-4 2-2 4-2-4-4-2z" fill="#c7e2e4"/>
</svg>
