<svg xmlns="http://www.w3.org/2000/svg" viewBox="0 0 64 64" role="img" aria-label="Treatment room icon">
  <path d="M23 12c-7 0-11.5 5.4-11.5 12.4 0 5.9 3.2 9.7 5.5 14 2.2 4.1 2.6 13.6 8 13.6 3.9 0 3.6-8.9 7-8.9s3.1 8.9 7 8.9c5.4 0 5.8-9.5 8-13.6 2.3-4.3 5.5-8.1 5.5-14C52.5 17.4 48 12 41 12c-4 0-6.3 2-9 2s-5-2-9-2z" fill="#f5fffc" stroke="#0f8f86" stroke-width="5" stroke-linejoin="round"/>
  <path d="M24 29h16" fill="none" stroke="#0f8f86" stroke-width="5" stroke-linecap="round"/>
  <path d="M32 21v16" fill="none" stroke="#0f8f86" stroke-width="5" stroke-linecap="round"/>
  <path d="M45.5 10.5l1.7-3.4 1.7 3.4 3.4 1.7-3.4 1.7-1.7 3.4-1.7-3.4-3.4-1.7z" fill="#8be5dc"/>
</svg>
